<svg height="24" viewBox="0 0 23.999999 23.999999" width="24" xmlns="http://www.w3.org/2000/svg"><g transform="matrix(.05452563 0 0 .05452563 .982225 .999999)"><path d="m277.271 0h-231.095v403.48h311.129v-323.445zm4.393 25.607 50.033 50.034h-50.033zm-220.488 362.873v-373.48h205.489v75.641h75.641v297.84h-281.13z"/><path d="m101.439 117.58h55.18v-55.18h-55.18zm15-40.18h25.18v25.18h-25.18z"/><path d="m101.439 192.08h55.18v-55.18h-55.18zm15-40.18h25.18v25.18h-25.18z"/><path d="m101.439 266.581h55.18v-55.181h-55.18zm15-40.181h25.18v25.181h-25.18z"/><path d="m101.439 341.081h55.18v-55.18h-55.18zm15-40.18h25.18v25.18h-25.18z"/><path d="m177.83501 326.08099h114.688v15h-114.688z"/><path d="m177.83501 251.58099h114.688v15h-114.688z"/><path d="m177.83501 177.08h114.688v15h-114.688z"/><path d="m177.83501 102.58h114.688v15h-114.688z"/></g></svg>